<mxfile host="app.diagrams.net" modified="2023-05-04T00:36:30.217Z" agent="Mozilla/5.0 (Windows NT 10.0; Win64; x64) AppleWebKit/537.36 (KHTML, like Gecko) Chrome/112.0.0.0 Safari/537.36" etag="FqRRsRXwseJaUvxweomo" version="21.2.7" type="device">
  <diagram name="PÃ¡gina-1" id="l54njpnicJQUUe1wbLX4">
    <mxGraphModel dx="1050" dy="1710" grid="1" gridSize="10" guides="1" tooltips="1" connect="1" arrows="1" fold="1" page="1" pageScale="1" pageWidth="827" pageHeight="1169" math="0" shadow="0">
      <root>
        <mxCell id="0" />
        <mxCell id="1" parent="0" />
        <mxCell id="oA-gUtloHqNuAYRD26jA-1" value="N&amp;nbsp; = 1" style="rounded=0;whiteSpace=wrap;html=1;" vertex="1" parent="1">
          <mxGeometry x="350" y="-430" width="120" height="60" as="geometry" />
        </mxCell>
        <mxCell id="oA-gUtloHqNuAYRD26jA-2" value="" style="endArrow=classic;html=1;rounded=0;exitX=0.5;exitY=1;exitDx=0;exitDy=0;" edge="1" parent="1" source="oA-gUtloHqNuAYRD26jA-1" target="oA-gUtloHqNuAYRD26jA-3">
          <mxGeometry width="50" height="50" relative="1" as="geometry">
            <mxPoint x="430" y="-180" as="sourcePoint" />
            <mxPoint x="410" y="-290" as="targetPoint" />
          </mxGeometry>
        </mxCell>
        <mxCell id="oA-gUtloHqNuAYRD26jA-3" value="&amp;nbsp;N &amp;lt;= 5" style="rhombus;whiteSpace=wrap;html=1;" vertex="1" parent="1">
          <mxGeometry x="370" y="-330" width="80" height="80" as="geometry" />
        </mxCell>
        <mxCell id="oA-gUtloHqNuAYRD26jA-4" value="" style="endArrow=classic;html=1;rounded=0;exitX=0.5;exitY=1;exitDx=0;exitDy=0;" edge="1" parent="1" source="oA-gUtloHqNuAYRD26jA-3" target="oA-gUtloHqNuAYRD26jA-5">
          <mxGeometry width="50" height="50" relative="1" as="geometry">
            <mxPoint x="430" y="-180" as="sourcePoint" />
            <mxPoint x="410" y="-190" as="targetPoint" />
          </mxGeometry>
        </mxCell>
        <mxCell id="oA-gUtloHqNuAYRD26jA-5" value="N = N+ 1" style="rounded=1;whiteSpace=wrap;html=1;" vertex="1" parent="1">
          <mxGeometry x="350" y="-220" width="120" height="60" as="geometry" />
        </mxCell>
        <mxCell id="oA-gUtloHqNuAYRD26jA-6" value="" style="endArrow=classic;html=1;rounded=0;exitX=0.5;exitY=1;exitDx=0;exitDy=0;entryX=0;entryY=0.5;entryDx=0;entryDy=0;" edge="1" parent="1" source="oA-gUtloHqNuAYRD26jA-5" target="oA-gUtloHqNuAYRD26jA-3">
          <mxGeometry width="50" height="50" relative="1" as="geometry">
            <mxPoint x="430" y="-180" as="sourcePoint" />
            <mxPoint x="480" y="-230" as="targetPoint" />
            <Array as="points">
              <mxPoint x="410" y="-90" />
              <mxPoint x="310" y="-90" />
              <mxPoint x="310" y="-290" />
            </Array>
          </mxGeometry>
        </mxCell>
        <mxCell id="oA-gUtloHqNuAYRD26jA-7" value="Yes" style="text;html=1;align=center;verticalAlign=middle;resizable=0;points=[];autosize=1;strokeColor=none;fillColor=none;" vertex="1" parent="1">
          <mxGeometry x="410" y="-252" width="40" height="30" as="geometry" />
        </mxCell>
        <mxCell id="oA-gUtloHqNuAYRD26jA-8" value="" style="endArrow=classic;html=1;rounded=0;exitX=1;exitY=0.5;exitDx=0;exitDy=0;" edge="1" parent="1" source="oA-gUtloHqNuAYRD26jA-3">
          <mxGeometry width="50" height="50" relative="1" as="geometry">
            <mxPoint x="430" y="-180" as="sourcePoint" />
            <mxPoint x="560" y="-210" as="targetPoint" />
            <Array as="points">
              <mxPoint x="560" y="-290" />
            </Array>
          </mxGeometry>
        </mxCell>
        <mxCell id="oA-gUtloHqNuAYRD26jA-9" value="No" style="text;html=1;align=center;verticalAlign=middle;resizable=0;points=[];autosize=1;strokeColor=none;fillColor=none;" vertex="1" parent="1">
          <mxGeometry x="490" y="-292" width="40" height="30" as="geometry" />
        </mxCell>
        <mxCell id="oA-gUtloHqNuAYRD26jA-10" value="WHILE =&amp;gt; Mientras" style="text;html=1;align=center;verticalAlign=middle;resizable=0;points=[];autosize=1;strokeColor=none;fillColor=none;" vertex="1" parent="1">
          <mxGeometry x="210" y="-470" width="130" height="30" as="geometry" />
        </mxCell>
        <mxCell id="oA-gUtloHqNuAYRD26jA-11" value="MyPrimerAlgoritmo" style="ellipse;whiteSpace=wrap;html=1;" vertex="1" parent="1">
          <mxGeometry x="690" y="-1110" width="120" height="80" as="geometry" />
        </mxCell>
        <mxCell id="oA-gUtloHqNuAYRD26jA-12" value="edad = 18" style="shape=parallelogram;perimeter=parallelogramPerimeter;whiteSpace=wrap;html=1;fixedSize=1;" vertex="1" parent="1">
          <mxGeometry x="690" y="-990" width="120" height="60" as="geometry" />
        </mxCell>
        <mxCell id="oA-gUtloHqNuAYRD26jA-13" value="edad &amp;gt;= 18" style="rhombus;whiteSpace=wrap;html=1;" vertex="1" parent="1">
          <mxGeometry x="710" y="-900" width="80" height="80" as="geometry" />
        </mxCell>
        <mxCell id="oA-gUtloHqNuAYRD26jA-14" value="Juan es menor de edad" style="shape=document;whiteSpace=wrap;html=1;boundedLbl=1;" vertex="1" parent="1">
          <mxGeometry x="570" y="-800" width="120" height="80" as="geometry" />
        </mxCell>
        <mxCell id="oA-gUtloHqNuAYRD26jA-15" value="Juan es mayor de edad" style="shape=document;whiteSpace=wrap;html=1;boundedLbl=1;" vertex="1" parent="1">
          <mxGeometry x="810" y="-800" width="120" height="80" as="geometry" />
        </mxCell>
        <mxCell id="oA-gUtloHqNuAYRD26jA-16" value="Fin" style="ellipse;whiteSpace=wrap;html=1;" vertex="1" parent="1">
          <mxGeometry x="700" y="-650" width="120" height="54" as="geometry" />
        </mxCell>
        <mxCell id="oA-gUtloHqNuAYRD26jA-17" value="" style="endArrow=classic;html=1;rounded=0;exitX=0.5;exitY=1;exitDx=0;exitDy=0;entryX=0.5;entryY=0;entryDx=0;entryDy=0;" edge="1" parent="1" source="oA-gUtloHqNuAYRD26jA-11" target="oA-gUtloHqNuAYRD26jA-12">
          <mxGeometry width="50" height="50" relative="1" as="geometry">
            <mxPoint x="440" y="-850" as="sourcePoint" />
            <mxPoint x="490" y="-900" as="targetPoint" />
          </mxGeometry>
        </mxCell>
        <mxCell id="oA-gUtloHqNuAYRD26jA-18" value="" style="endArrow=classic;html=1;rounded=0;exitX=0.5;exitY=1;exitDx=0;exitDy=0;entryX=0.5;entryY=0;entryDx=0;entryDy=0;" edge="1" parent="1" source="oA-gUtloHqNuAYRD26jA-12" target="oA-gUtloHqNuAYRD26jA-13">
          <mxGeometry width="50" height="50" relative="1" as="geometry">
            <mxPoint x="760" y="-1020" as="sourcePoint" />
            <mxPoint x="760" y="-980" as="targetPoint" />
          </mxGeometry>
        </mxCell>
        <mxCell id="oA-gUtloHqNuAYRD26jA-19" value="" style="endArrow=classic;html=1;rounded=0;exitX=0;exitY=0.5;exitDx=0;exitDy=0;entryX=0.5;entryY=0;entryDx=0;entryDy=0;" edge="1" parent="1" source="oA-gUtloHqNuAYRD26jA-13" target="oA-gUtloHqNuAYRD26jA-14">
          <mxGeometry width="50" height="50" relative="1" as="geometry">
            <mxPoint x="440" y="-850" as="sourcePoint" />
            <mxPoint x="490" y="-900" as="targetPoint" />
            <Array as="points">
              <mxPoint x="630" y="-860" />
            </Array>
          </mxGeometry>
        </mxCell>
        <mxCell id="oA-gUtloHqNuAYRD26jA-20" value="" style="endArrow=classic;html=1;rounded=0;exitX=1;exitY=0.5;exitDx=0;exitDy=0;" edge="1" parent="1" source="oA-gUtloHqNuAYRD26jA-13">
          <mxGeometry width="50" height="50" relative="1" as="geometry">
            <mxPoint x="720" y="-850" as="sourcePoint" />
            <mxPoint x="870" y="-800" as="targetPoint" />
            <Array as="points">
              <mxPoint x="870" y="-860" />
            </Array>
          </mxGeometry>
        </mxCell>
        <mxCell id="oA-gUtloHqNuAYRD26jA-23" value="" style="endArrow=none;html=1;rounded=0;entryX=0.52;entryY=0.89;entryDx=0;entryDy=0;entryPerimeter=0;exitX=0.573;exitY=0.78;exitDx=0;exitDy=0;exitPerimeter=0;" edge="1" parent="1" source="oA-gUtloHqNuAYRD26jA-15" target="oA-gUtloHqNuAYRD26jA-14">
          <mxGeometry width="50" height="50" relative="1" as="geometry">
            <mxPoint x="840" y="-700" as="sourcePoint" />
            <mxPoint x="430" y="-630" as="targetPoint" />
            <Array as="points">
              <mxPoint x="880" y="-690" />
              <mxPoint x="632" y="-690" />
            </Array>
          </mxGeometry>
        </mxCell>
        <mxCell id="oA-gUtloHqNuAYRD26jA-24" value="" style="endArrow=classic;html=1;rounded=0;entryX=0.5;entryY=0;entryDx=0;entryDy=0;" edge="1" parent="1" target="oA-gUtloHqNuAYRD26jA-16">
          <mxGeometry width="50" height="50" relative="1" as="geometry">
            <mxPoint x="760" y="-690" as="sourcePoint" />
            <mxPoint x="430" y="-630" as="targetPoint" />
          </mxGeometry>
        </mxCell>
        <mxCell id="oA-gUtloHqNuAYRD26jA-25" value="" style="endArrow=classic;html=1;rounded=0;" edge="1" parent="1">
          <mxGeometry width="50" height="50" relative="1" as="geometry">
            <mxPoint x="400" y="-730" as="sourcePoint" />
            <mxPoint x="400" y="-670" as="targetPoint" />
          </mxGeometry>
        </mxCell>
        <mxCell id="oA-gUtloHqNuAYRD26jA-26" value="Juan Mayor edad?" style="rhombus;whiteSpace=wrap;html=1;" vertex="1" parent="1">
          <mxGeometry x="360" y="-676" width="80" height="80" as="geometry" />
        </mxCell>
        <mxCell id="oA-gUtloHqNuAYRD26jA-27" value="" style="endArrow=classic;html=1;rounded=0;exitX=0;exitY=0.5;exitDx=0;exitDy=0;" edge="1" parent="1" source="oA-gUtloHqNuAYRD26jA-26">
          <mxGeometry width="50" height="50" relative="1" as="geometry">
            <mxPoint x="380" y="-590" as="sourcePoint" />
            <mxPoint x="280" y="-600" as="targetPoint" />
            <Array as="points">
              <mxPoint x="280" y="-636" />
            </Array>
          </mxGeometry>
        </mxCell>
        <mxCell id="oA-gUtloHqNuAYRD26jA-28" value="" style="endArrow=classic;html=1;rounded=0;exitX=1;exitY=0.5;exitDx=0;exitDy=0;" edge="1" parent="1" source="oA-gUtloHqNuAYRD26jA-26">
          <mxGeometry width="50" height="50" relative="1" as="geometry">
            <mxPoint x="370" y="-626" as="sourcePoint" />
            <mxPoint x="520" y="-600" as="targetPoint" />
            <Array as="points">
              <mxPoint x="520" y="-636" />
            </Array>
          </mxGeometry>
        </mxCell>
        <mxCell id="oA-gUtloHqNuAYRD26jA-29" value="Yes" style="text;html=1;align=center;verticalAlign=middle;resizable=0;points=[];autosize=1;strokeColor=none;fillColor=none;" vertex="1" parent="1">
          <mxGeometry x="450" y="-662" width="40" height="30" as="geometry" />
        </mxCell>
        <mxCell id="oA-gUtloHqNuAYRD26jA-30" value="No" style="text;html=1;align=center;verticalAlign=middle;resizable=0;points=[];autosize=1;strokeColor=none;fillColor=none;" vertex="1" parent="1">
          <mxGeometry x="280" y="-662" width="40" height="30" as="geometry" />
        </mxCell>
      </root>
    </mxGraphModel>
  </diagram>
</mxfile>
